<svg width="384" height="55" viewBox="0 0 384 55" fill="none" xmlns="http://www.w3.org/2000/svg">
<rect width="384" height="55" rx="27.5" fill="#EDEDED"/>
<rect x="12" y="15" width="25" height="25" rx="4" stroke="black" stroke-width="2"/>
<rect x="17" y="15" width="25" height="25" rx="4" stroke="black" stroke-width="2"/>
<path d="M71.1562 32.4844H64.9922L63.8203 36H60.082L66.4336 18.9375H69.6914L76.0781 36H72.3398L71.1562 32.4844ZM65.9414 29.6367H70.207L68.0625 23.25L65.9414 29.6367ZM81.0234 36H77.625V18H81.0234V36ZM95.25 29.7773C95.25 31.8086 94.8164 33.3945 93.9492 34.5352C93.082 35.668 91.8711 36.2344 90.3164 36.2344C88.9414 36.2344 87.8438 35.707 87.0234 34.6523L86.8711 36H83.8242V18H87.2109V24.457C87.9922 23.543 89.0195 23.0859 90.293 23.0859C91.8398 23.0859 93.0508 23.6562 93.9258 24.7969C94.8086 25.9297 95.25 27.5273 95.25 29.5898V29.7773ZM91.8633 29.5312C91.8633 28.25 91.6602 27.3164 91.2539 26.7305C90.8477 26.1367 90.2422 25.8398 89.4375 25.8398C88.3594 25.8398 87.6172 26.2812 87.2109 27.1641V32.168C87.625 33.0586 88.375 33.5039 89.4609 33.5039C90.5547 33.5039 91.2734 32.9648 91.6172 31.8867C91.7812 31.3711 91.8633 30.5859 91.8633 29.5312ZM104.941 34.7109C104.105 35.7266 102.949 36.2344 101.473 36.2344C100.113 36.2344 99.0742 35.8438 98.3555 35.0625C97.6445 34.2812 97.2812 33.1367 97.2656 31.6289V23.3203H100.652V31.5117C100.652 32.832 101.254 33.4922 102.457 33.4922C103.605 33.4922 104.395 33.0938 104.824 32.2969V23.3203H108.223V36H105.035L104.941 34.7109ZM113.953 23.3203L114.059 24.7383C114.957 23.6367 116.172 23.0859 117.703 23.0859C119.336 23.0859 120.457 23.7305 121.066 25.0195C121.957 23.7305 123.227 23.0859 124.875 23.0859C126.25 23.0859 127.273 23.4883 127.945 24.293C128.617 25.0898 128.953 26.293 128.953 27.9023V36H125.555V27.9141C125.555 27.1953 125.414 26.6719 125.133 26.3438C124.852 26.0078 124.355 25.8398 123.645 25.8398C122.629 25.8398 121.926 26.3242 121.535 27.293L121.547 36H118.16V27.9258C118.16 27.1914 118.016 26.6602 117.727 26.332C117.438 26.0039 116.945 25.8398 116.25 25.8398C115.289 25.8398 114.594 26.2383 114.164 27.0352V36H110.777V23.3203H113.953ZM138.434 32.4961C138.434 32.082 138.227 31.7578 137.812 31.5234C137.406 31.2812 136.75 31.0664 135.844 30.8789C132.828 30.2461 131.32 28.9648 131.32 27.0352C131.32 25.9102 131.785 24.9727 132.715 24.2227C133.652 23.4648 134.875 23.0859 136.383 23.0859C137.992 23.0859 139.277 23.4648 140.238 24.2227C141.207 24.9805 141.691 25.9648 141.691 27.1758H138.305C138.305 26.6914 138.148 26.293 137.836 25.9805C137.523 25.6602 137.035 25.5 136.371 25.5C135.801 25.5 135.359 25.6289 135.047 25.8867C134.734 26.1445 134.578 26.4727 134.578 26.8711C134.578 27.2461 134.754 27.5508 135.105 27.7852C135.465 28.0117 136.066 28.2109 136.91 28.3828C137.754 28.5469 138.465 28.7344 139.043 28.9453C140.832 29.6016 141.727 30.7383 141.727 32.3555C141.727 33.5117 141.23 34.4492 140.238 35.168C139.246 35.8789 137.965 36.2344 136.395 36.2344C135.332 36.2344 134.387 36.0469 133.559 35.6719C132.738 35.2891 132.094 34.7695 131.625 34.1133C131.156 33.4492 130.922 32.7344 130.922 31.9688H134.133C134.164 32.5703 134.387 33.0312 134.801 33.3516C135.215 33.6719 135.77 33.832 136.465 33.832C137.113 33.832 137.602 33.7109 137.93 33.4688C138.266 33.2188 138.434 32.8945 138.434 32.4961Z" fill="black"/>
</svg>
