<svg width="384" height="55" viewBox="0 0 384 55" fill="none" xmlns="http://www.w3.org/2000/svg">
<rect width="384" height="55" rx="27.5" fill="#EDEDED"/>
<circle cx="25.5" cy="25.5" r="13.5" stroke="black" stroke-width="2"/>
<rect x="14" y="41" width="23" height="4" stroke="black" stroke-width="2"/>
<path d="M71.1562 30.4844H64.9922L63.8203 34H60.082L66.4336 16.9375H69.6914L76.0781 34H72.3398L71.1562 30.4844ZM65.9414 27.6367H70.207L68.0625 21.25L65.9414 27.6367ZM84.5742 24.4961C84.1133 24.4336 83.707 24.4023 83.3555 24.4023C82.0742 24.4023 81.2344 24.8359 80.8359 25.7031V34H77.4492V21.3203H80.6484L80.7422 22.832C81.4219 21.668 82.3633 21.0859 83.5664 21.0859C83.9414 21.0859 84.293 21.1367 84.6211 21.2383L84.5742 24.4961ZM90.8555 18.2031V21.3203H93.0234V23.8047H90.8555V30.1328C90.8555 30.6016 90.9453 30.9375 91.125 31.1406C91.3047 31.3438 91.6484 31.4453 92.1562 31.4453C92.5312 31.4453 92.8633 31.418 93.1523 31.3633V33.9297C92.4883 34.1328 91.8047 34.2344 91.1016 34.2344C88.7266 34.2344 87.5156 33.0352 87.4688 30.6367V23.8047H85.6172V21.3203H87.4688V18.2031H90.8555ZM98.4844 34H95.0859V21.3203H98.4844V34ZM94.8867 18.0391C94.8867 17.5312 95.0547 17.1133 95.3906 16.7852C95.7344 16.457 96.1992 16.293 96.7852 16.293C97.3633 16.293 97.8242 16.457 98.168 16.7852C98.5117 17.1133 98.6836 17.5312 98.6836 18.0391C98.6836 18.5547 98.5078 18.9766 98.1562 19.3047C97.8125 19.6328 97.3555 19.7969 96.7852 19.7969C96.2148 19.7969 95.7539 19.6328 95.4023 19.3047C95.0586 18.9766 94.8867 18.5547 94.8867 18.0391ZM108.152 30.4961C108.152 30.082 107.945 29.7578 107.531 29.5234C107.125 29.2812 106.469 29.0664 105.562 28.8789C102.547 28.2461 101.039 26.9648 101.039 25.0352C101.039 23.9102 101.504 22.9727 102.434 22.2227C103.371 21.4648 104.594 21.0859 106.102 21.0859C107.711 21.0859 108.996 21.4648 109.957 22.2227C110.926 22.9805 111.41 23.9648 111.41 25.1758H108.023C108.023 24.6914 107.867 24.293 107.555 23.9805C107.242 23.6602 106.754 23.5 106.09 23.5C105.52 23.5 105.078 23.6289 104.766 23.8867C104.453 24.1445 104.297 24.4727 104.297 24.8711C104.297 25.2461 104.473 25.5508 104.824 25.7852C105.184 26.0117 105.785 26.2109 106.629 26.3828C107.473 26.5469 108.184 26.7344 108.762 26.9453C110.551 27.6016 111.445 28.7383 111.445 30.3555C111.445 31.5117 110.949 32.4492 109.957 33.168C108.965 33.8789 107.684 34.2344 106.113 34.2344C105.051 34.2344 104.105 34.0469 103.277 33.6719C102.457 33.2891 101.812 32.7695 101.344 32.1133C100.875 31.4492 100.641 30.7344 100.641 29.9688H103.852C103.883 30.5703 104.105 31.0312 104.52 31.3516C104.934 31.6719 105.488 31.832 106.184 31.832C106.832 31.832 107.32 31.7109 107.648 31.4688C107.984 31.2188 108.152 30.8945 108.152 30.4961ZM117.691 18.2031V21.3203H119.859V23.8047H117.691V30.1328C117.691 30.6016 117.781 30.9375 117.961 31.1406C118.141 31.3438 118.484 31.4453 118.992 31.4453C119.367 31.4453 119.699 31.418 119.988 31.3633V33.9297C119.324 34.1328 118.641 34.2344 117.938 34.2344C115.562 34.2344 114.352 33.0352 114.305 30.6367V23.8047H112.453V21.3203H114.305V18.2031H117.691ZM128.613 30.4961C128.613 30.082 128.406 29.7578 127.992 29.5234C127.586 29.2812 126.93 29.0664 126.023 28.8789C123.008 28.2461 121.5 26.9648 121.5 25.0352C121.5 23.9102 121.965 22.9727 122.895 22.2227C123.832 21.4648 125.055 21.0859 126.562 21.0859C128.172 21.0859 129.457 21.4648 130.418 22.2227C131.387 22.9805 131.871 23.9648 131.871 25.1758H128.484C128.484 24.6914 128.328 24.293 128.016 23.9805C127.703 23.6602 127.215 23.5 126.551 23.5C125.98 23.5 125.539 23.6289 125.227 23.8867C124.914 24.1445 124.758 24.4727 124.758 24.8711C124.758 25.2461 124.934 25.5508 125.285 25.7852C125.645 26.0117 126.246 26.2109 127.09 26.3828C127.934 26.5469 128.645 26.7344 129.223 26.9453C131.012 27.6016 131.906 28.7383 131.906 30.3555C131.906 31.5117 131.41 32.4492 130.418 33.168C129.426 33.8789 128.145 34.2344 126.574 34.2344C125.512 34.2344 124.566 34.0469 123.738 33.6719C122.918 33.2891 122.273 32.7695 121.805 32.1133C121.336 31.4492 121.102 30.7344 121.102 29.9688H124.312C124.344 30.5703 124.566 31.0312 124.98 31.3516C125.395 31.6719 125.949 31.832 126.645 31.832C127.293 31.832 127.781 31.7109 128.109 31.4688C128.445 31.2188 128.613 30.8945 128.613 30.4961Z" fill="black"/>
</svg>
