<svg width="384" height="55" viewBox="0 0 384 55" fill="none" xmlns="http://www.w3.org/2000/svg">
<rect width="384" height="55" rx="27.5" fill="#EDEDED"/>
<rect x="26" y="9.41421" width="19.2132" height="19.2132" rx="1" transform="rotate(45 26 9.41421)" stroke="black" stroke-width="2"/>
<rect x="26" y="19.6787" width="19.2132" height="19.2132" rx="1" transform="rotate(45 26 19.6787)" stroke="black" stroke-width="2"/>
<rect x="26" y="14.8886" width="19.2132" height="19.2132" rx="1" transform="rotate(45 26 14.8886)" stroke="black" stroke-width="2"/>
<path d="M65.0391 30.9883V37H61.5234V19.9375H68.1797C69.4609 19.9375 70.5859 20.1719 71.5547 20.6406C72.5312 21.1094 73.2812 21.7773 73.8047 22.6445C74.3281 23.5039 74.5898 24.4844 74.5898 25.5859C74.5898 27.2578 74.0156 28.5781 72.8672 29.5469C71.7266 30.5078 70.1445 30.9883 68.1211 30.9883H65.0391ZM65.0391 28.1406H68.1797C69.1094 28.1406 69.8164 27.9219 70.3008 27.4844C70.793 27.0469 71.0391 26.4219 71.0391 25.6094C71.0391 24.7734 70.793 24.0977 70.3008 23.582C69.8086 23.0664 69.1289 22.8008 68.2617 22.7852H65.0391V28.1406ZM80.3672 37H76.9688V19H80.3672V37ZM90.5156 37C90.3594 36.6953 90.2461 36.3164 90.1758 35.8633C89.3555 36.7773 88.2891 37.2344 86.9766 37.2344C85.7344 37.2344 84.7031 36.875 83.8828 36.1562C83.0703 35.4375 82.6641 34.5312 82.6641 33.4375C82.6641 32.0938 83.1602 31.0625 84.1523 30.3438C85.1523 29.625 86.5938 29.2617 88.4766 29.2539H90.0352V28.5273C90.0352 27.9414 89.8828 27.4727 89.5781 27.1211C89.2812 26.7695 88.8086 26.5938 88.1602 26.5938C87.5898 26.5938 87.1406 26.7305 86.8125 27.0039C86.4922 27.2773 86.332 27.6523 86.332 28.1289H82.9453C82.9453 27.3945 83.1719 26.7148 83.625 26.0898C84.0781 25.4648 84.7188 24.9766 85.5469 24.625C86.375 24.2656 87.3047 24.0859 88.3359 24.0859C89.8984 24.0859 91.1367 24.4805 92.0508 25.2695C92.9727 26.0508 93.4336 27.1523 93.4336 28.5742V34.0703C93.4414 35.2734 93.6094 36.1836 93.9375 36.8008V37H90.5156ZM87.7148 34.6445C88.2148 34.6445 88.6758 34.5352 89.0977 34.3164C89.5195 34.0898 89.832 33.7891 90.0352 33.4141V31.2344H88.7695C87.0742 31.2344 86.1719 31.8203 86.0625 32.9922L86.0508 33.1914C86.0508 33.6133 86.1992 33.9609 86.4961 34.2344C86.793 34.5078 87.1992 34.6445 87.7148 34.6445ZM100.582 32.207L102.926 24.3203H106.559L101.461 38.9688L101.18 39.6367C100.422 41.293 99.1719 42.1211 97.4297 42.1211C96.9375 42.1211 96.4375 42.0469 95.9297 41.8984V39.332L96.4453 39.3438C97.0859 39.3438 97.5625 39.2461 97.875 39.0508C98.1953 38.8555 98.4453 38.5312 98.625 38.0781L99.0234 37.0352L94.582 24.3203H98.2266L100.582 32.207ZM111.469 37H108.07V19H111.469V37ZM117.844 37H114.445V24.3203H117.844V37ZM114.246 21.0391C114.246 20.5312 114.414 20.1133 114.75 19.7852C115.094 19.457 115.559 19.293 116.145 19.293C116.723 19.293 117.184 19.457 117.527 19.7852C117.871 20.1133 118.043 20.5312 118.043 21.0391C118.043 21.5547 117.867 21.9766 117.516 22.3047C117.172 22.6328 116.715 22.7969 116.145 22.7969C115.574 22.7969 115.113 22.6328 114.762 22.3047C114.418 21.9766 114.246 21.5547 114.246 21.0391ZM127.512 33.4961C127.512 33.082 127.305 32.7578 126.891 32.5234C126.484 32.2812 125.828 32.0664 124.922 31.8789C121.906 31.2461 120.398 29.9648 120.398 28.0352C120.398 26.9102 120.863 25.9727 121.793 25.2227C122.73 24.4648 123.953 24.0859 125.461 24.0859C127.07 24.0859 128.355 24.4648 129.316 25.2227C130.285 25.9805 130.77 26.9648 130.77 28.1758H127.383C127.383 27.6914 127.227 27.293 126.914 26.9805C126.602 26.6602 126.113 26.5 125.449 26.5C124.879 26.5 124.438 26.6289 124.125 26.8867C123.812 27.1445 123.656 27.4727 123.656 27.8711C123.656 28.2461 123.832 28.5508 124.184 28.7852C124.543 29.0117 125.145 29.2109 125.988 29.3828C126.832 29.5469 127.543 29.7344 128.121 29.9453C129.91 30.6016 130.805 31.7383 130.805 33.3555C130.805 34.5117 130.309 35.4492 129.316 36.168C128.324 36.8789 127.043 37.2344 125.473 37.2344C124.41 37.2344 123.465 37.0469 122.637 36.6719C121.816 36.2891 121.172 35.7695 120.703 35.1133C120.234 34.4492 120 33.7344 120 32.9688H123.211C123.242 33.5703 123.465 34.0312 123.879 34.3516C124.293 34.6719 124.848 34.832 125.543 34.832C126.191 34.832 126.68 34.7109 127.008 34.4688C127.344 34.2188 127.512 33.8945 127.512 33.4961ZM137.051 21.2031V24.3203H139.219V26.8047H137.051V33.1328C137.051 33.6016 137.141 33.9375 137.32 34.1406C137.5 34.3438 137.844 34.4453 138.352 34.4453C138.727 34.4453 139.059 34.418 139.348 34.3633V36.9297C138.684 37.1328 138 37.2344 137.297 37.2344C134.922 37.2344 133.711 36.0352 133.664 33.6367V26.8047H131.812V24.3203H133.664V21.2031H137.051ZM147.973 33.4961C147.973 33.082 147.766 32.7578 147.352 32.5234C146.945 32.2812 146.289 32.0664 145.383 31.8789C142.367 31.2461 140.859 29.9648 140.859 28.0352C140.859 26.9102 141.324 25.9727 142.254 25.2227C143.191 24.4648 144.414 24.0859 145.922 24.0859C147.531 24.0859 148.816 24.4648 149.777 25.2227C150.746 25.9805 151.23 26.9648 151.23 28.1758H147.844C147.844 27.6914 147.688 27.293 147.375 26.9805C147.062 26.6602 146.574 26.5 145.91 26.5C145.34 26.5 144.898 26.6289 144.586 26.8867C144.273 27.1445 144.117 27.4727 144.117 27.8711C144.117 28.2461 144.293 28.5508 144.645 28.7852C145.004 29.0117 145.605 29.2109 146.449 29.3828C147.293 29.5469 148.004 29.7344 148.582 29.9453C150.371 30.6016 151.266 31.7383 151.266 33.3555C151.266 34.5117 150.77 35.4492 149.777 36.168C148.785 36.8789 147.504 37.2344 145.934 37.2344C144.871 37.2344 143.926 37.0469 143.098 36.6719C142.277 36.2891 141.633 35.7695 141.164 35.1133C140.695 34.4492 140.461 33.7344 140.461 32.9688H143.672C143.703 33.5703 143.926 34.0312 144.34 34.3516C144.754 34.6719 145.309 34.832 146.004 34.832C146.652 34.832 147.141 34.7109 147.469 34.4688C147.805 34.2188 147.973 33.8945 147.973 33.4961Z" fill="black"/>
</svg>
