<svg width="384" height="55" viewBox="0 0 384 55" fill="none" xmlns="http://www.w3.org/2000/svg">
<rect width="384" height="55" rx="27.5" fill="#EDEDED"/>
<circle cx="25.5" cy="34.5" r="4.5" stroke="black" stroke-width="2"/>
<line x1="30" y1="35" x2="30" y2="12" stroke="black" stroke-width="2"/>
<path d="M70.3711 31.5234C70.3711 30.8594 70.1367 30.3516 69.668 30C69.1992 29.6406 68.3555 29.2656 67.1367 28.875C65.918 28.4766 64.9531 28.0859 64.2422 27.7031C62.3047 26.6562 61.3359 25.2461 61.3359 23.4727C61.3359 22.5508 61.5938 21.7305 62.1094 21.0117C62.6328 20.2852 63.3789 19.7188 64.3477 19.3125C65.3242 18.9062 66.418 18.7031 67.6289 18.7031C68.8477 18.7031 69.9336 18.9258 70.8867 19.3711C71.8398 19.8086 72.5781 20.4297 73.1016 21.2344C73.6328 22.0391 73.8984 22.9531 73.8984 23.9766H70.3828C70.3828 23.1953 70.1367 22.5898 69.6445 22.1602C69.1523 21.7227 68.4609 21.5039 67.5703 21.5039C66.7109 21.5039 66.043 21.6875 65.5664 22.0547C65.0898 22.4141 64.8516 22.8906 64.8516 23.4844C64.8516 24.0391 65.1289 24.5039 65.6836 24.8789C66.2461 25.2539 67.0703 25.6055 68.1562 25.9336C70.1562 26.5352 71.6133 27.2812 72.5273 28.1719C73.4414 29.0625 73.8984 30.1719 73.8984 31.5C73.8984 32.9766 73.3398 34.1367 72.2227 34.9805C71.1055 35.8164 69.6016 36.2344 67.7109 36.2344C66.3984 36.2344 65.2031 35.9961 64.125 35.5195C63.0469 35.0352 62.2227 34.375 61.6523 33.5391C61.0898 32.7031 60.8086 31.7344 60.8086 30.6328H64.3359C64.3359 32.5156 65.4609 33.457 67.7109 33.457C68.5469 33.457 69.1992 33.2891 69.668 32.9531C70.1367 32.6094 70.3711 32.1328 70.3711 31.5234ZM75.5391 29.543C75.5391 28.2852 75.7812 27.1641 76.2656 26.1797C76.75 25.1953 77.4453 24.4336 78.3516 23.8945C79.2656 23.3555 80.3242 23.0859 81.5273 23.0859C83.2383 23.0859 84.6328 23.6094 85.7109 24.6562C86.7969 25.7031 87.4023 27.125 87.5273 28.9219L87.5508 29.7891C87.5508 31.7344 87.0078 33.2969 85.9219 34.4766C84.8359 35.6484 83.3789 36.2344 81.5508 36.2344C79.7227 36.2344 78.2617 35.6484 77.168 34.4766C76.082 33.3047 75.5391 31.7109 75.5391 29.6953V29.543ZM78.9258 29.7891C78.9258 30.9922 79.1523 31.9141 79.6055 32.5547C80.0586 33.1875 80.707 33.5039 81.5508 33.5039C82.3711 33.5039 83.0117 33.1914 83.4727 32.5664C83.9336 31.9336 84.1641 30.9258 84.1641 29.543C84.1641 28.3633 83.9336 27.4492 83.4727 26.8008C83.0117 26.1523 82.3633 25.8281 81.5273 25.8281C80.6992 25.8281 80.0586 26.1523 79.6055 26.8008C79.1523 27.4414 78.9258 28.4375 78.9258 29.7891ZM92.7539 23.3203L92.8594 24.7852C93.7656 23.6523 94.9805 23.0859 96.5039 23.0859C97.8477 23.0859 98.8477 23.4805 99.5039 24.2695C100.16 25.0586 100.496 26.2383 100.512 27.8086V36H97.125V27.8906C97.125 27.1719 96.9688 26.6523 96.6562 26.332C96.3438 26.0039 95.8242 25.8398 95.0977 25.8398C94.1445 25.8398 93.4297 26.2461 92.9531 27.0586V36H89.5664V23.3203H92.7539ZM102.598 29.5664C102.598 27.6211 103.059 26.0547 103.98 24.8672C104.91 23.6797 106.16 23.0859 107.73 23.0859C109.121 23.0859 110.203 23.5625 110.977 24.5156L111.117 23.3203H114.188V35.5781C114.188 36.6875 113.934 37.6523 113.426 38.4727C112.926 39.293 112.219 39.918 111.305 40.3477C110.391 40.7773 109.32 40.9922 108.094 40.9922C107.164 40.9922 106.258 40.8047 105.375 40.4297C104.492 40.0625 103.824 39.5859 103.371 39L104.871 36.9375C105.715 37.8828 106.738 38.3555 107.941 38.3555C108.84 38.3555 109.539 38.1133 110.039 37.6289C110.539 37.1523 110.789 36.4727 110.789 35.5898V34.9102C110.008 35.793 108.98 36.2344 107.707 36.2344C106.184 36.2344 104.949 35.6406 104.004 34.4531C103.066 33.2578 102.598 31.6758 102.598 29.707V29.5664ZM105.984 29.8125C105.984 30.9609 106.215 31.8633 106.676 32.5195C107.137 33.168 107.77 33.4922 108.574 33.4922C109.605 33.4922 110.344 33.1055 110.789 32.332V27C110.336 26.2266 109.605 25.8398 108.598 25.8398C107.785 25.8398 107.145 26.1719 106.676 26.8359C106.215 27.5 105.984 28.4922 105.984 29.8125ZM123.668 32.4961C123.668 32.082 123.461 31.7578 123.047 31.5234C122.641 31.2812 121.984 31.0664 121.078 30.8789C118.062 30.2461 116.555 28.9648 116.555 27.0352C116.555 25.9102 117.02 24.9727 117.949 24.2227C118.887 23.4648 120.109 23.0859 121.617 23.0859C123.227 23.0859 124.512 23.4648 125.473 24.2227C126.441 24.9805 126.926 25.9648 126.926 27.1758H123.539C123.539 26.6914 123.383 26.293 123.07 25.9805C122.758 25.6602 122.27 25.5 121.605 25.5C121.035 25.5 120.594 25.6289 120.281 25.8867C119.969 26.1445 119.812 26.4727 119.812 26.8711C119.812 27.2461 119.988 27.5508 120.34 27.7852C120.699 28.0117 121.301 28.2109 122.145 28.3828C122.988 28.5469 123.699 28.7344 124.277 28.9453C126.066 29.6016 126.961 30.7383 126.961 32.3555C126.961 33.5117 126.465 34.4492 125.473 35.168C124.48 35.8789 123.199 36.2344 121.629 36.2344C120.566 36.2344 119.621 36.0469 118.793 35.6719C117.973 35.2891 117.328 34.7695 116.859 34.1133C116.391 33.4492 116.156 32.7344 116.156 31.9688H119.367C119.398 32.5703 119.621 33.0312 120.035 33.3516C120.449 33.6719 121.004 33.832 121.699 33.832C122.348 33.832 122.836 33.7109 123.164 33.4688C123.5 33.2188 123.668 32.8945 123.668 32.4961Z" fill="black"/>
</svg>
